PathFileType	4	(X/Y/Z)	C:\Users\Basilio\Documents\Thesis Gigler\squatting_fais\c3dfiles\076\SLS_back_pre4\markers_experimental.trc
DataRate	CameraRate	NumFrames	NumMarkers	Units	OrigDataRate	OrigDataStartFrame	OrigNumFrames
200.000000	200.000000	4	61	mm	200.000000	1360	1814
Frame#	Time	FHD			LBHD			RBHD			C7			T10			CLAV			LSHO			LUUPA			LMUPA			LDUPA			LLEP			LMEP			LRAD			LUL			LRFIN			RSHO			RUPA1			RMUPA			RDUPA			RLEP			RMEP			RRAD			RUL			RUFIN			LASI			RASI			USACR			LSACR			RSACR			LTHI1			LTHI2			LTHI3			LTHI4			LLFC			LMFC			LTIB1			LTIB2			LTIB3			LTIB4			LLMAL			LMMAL			LHEE			LMT1			LMT2			LMT5			RTHI			RTHI2			RTHI3			RTHI4			RLFC			RMFC			RTIB1			RTIB2			RTIB3			RTIB4			RLMAL			RMMAL			RHEE			RMT1			RMT2			RMT5			
		X1	Y1	Z1	X2	Y2	Z2	X3	Y3	Z3	X4	Y4	Z4	X5	Y5	Z5	X6	Y6	Z6	X7	Y7	Z7	X8	Y8	Z8	X9	Y9	Z9	X10	Y10	Z10	X11	Y11	Z11	X12	Y12	Z12	X13	Y13	Z13	X14	Y14	Z14	X15	Y15	Z15	X16	Y16	Z16	X17	Y17	Z17	X18	Y18	Z18	X19	Y19	Z19	X20	Y20	Z20	X21	Y21	Z21	X22	Y22	Z22	X23	Y23	Z23	X24	Y24	Z24	X25	Y25	Z25	X26	Y26	Z26	X27	Y27	Z27	X28	Y28	Z28	X29	Y29	Z29	X30	Y30	Z30	X31	Y31	Z31	X32	Y32	Z32	X33	Y33	Z33	X34	Y34	Z34	X35	Y35	Z35	X36	Y36	Z36	X37	Y37	Z37	X38	Y38	Z38	X39	Y39	Z39	X40	Y40	Z40	X41	Y41	Z41	X42	Y42	Z42	X43	Y43	Z43	X44	Y44	Z44	X45	Y45	Z45	X46	Y46	Z46	X47	Y47	Z47	X48	Y48	Z48	X49	Y49	Z49	X50	Y50	Z50	X51	Y51	Z51	X52	Y52	Z52	X53	Y53	Z53	X54	Y54	Z54	X55	Y55	Z55	X56	Y56	Z56	X57	Y57	Z57	X58	Y58	Z58	X59	Y59	Z59	X60	Y60	Z60	X61	Y61	Z61	

1361	6.8	-190.4784393310547	1635.542236328125	-1022.833068847656	-317.8384399414063	1549.451782226563	-1123.015014648438	-308.7492675781251	1555.228515625	-971.4327392578127	-356.5637512207032	1436.27685546875	-1045.349609375	-392.5726318359376	1120.953369140625	-1040.68310546875	-225.3746490478516	1357.634643554688	-1044.546630859375	-293.7155456542969	1378.718994140625	-1219.473876953125	-270.9890136718751	1181.840087890625	-1283.811401367188	-232.6558532714844	1161.6953125	-1259.628051757813	-256.4860534667969	1115.03466796875	-1292.753295898438	-258.8904418945313	1057.026489257813	-1296.676879882813	-287.1619567871094	1035.653686523438	-1221.63671875	-83.73898315429689	886.574157714844	-1245.584106445313	-115.8357391357422	857.6575927734377	-1294.903930664063	-23.57713127136231	826.7090454101565	-1258.381713867188	-293.4863891601563	1368.560668945313	-876.0712890625002	-317.9450988769532	1173.182739257813	-798.5487060546877	-273.0576171875001	1152.860961914063	-800.0727539062502	-308.1704711914063	1103.815307617188	-792.1519165039065	-290.3653564453126	1038.900146484375	-789.3300781250002	-294.9627990722657	1025.189697265625	-870.0173339843752	-124.9615936279297	856.111022949219	-811.5088500976565	-174.8394775390625	832.5306396484377	-773.529968261719	-83.73186492919923	795.6838989257815	-780.1211547851565	-246.9997253417969	926.2792968750002	-1134.368530273438	-241.4341583251954	936.5195922851565	-918.5093383789065	-402.3201599121095	1015.819519042969	-1027.046020507813	-413.7291564941407	986.792175292969	-1053.528930664063	-413.0275878906251	988.9399414062502	-996.669616699219	-323.5306701660157	768.715515136719	-1189.011352539063	-288.8446655273438	691.7861328125001	-1182.557373046875	-239.4342498779297	698.3942260742189	-1176.414428710938	-311.5516357421876	639.3937377929689	-1160.89892578125	-288.2311706542969	482.7965087890626	-1126.818481445313	-252.0100097656251	490.489959716797	-1014.769592285156	-271.2352294921876	342.8043212890626	-1040.245849609375	-302.7806701660157	284.9833374023438	-1099.3857421875	-273.3838195800782	288.8259887695313	-1061.993774414063	-302.5673217773438	221.9727325439454	-1019.474914550781	-380.3357543945313	105.6580657958985	-1057.261108398438	-352.5898132324219	122.2547912597657	-978.3501586914065	-440.9974060058595	97.1262130737305	-1007.67431640625	-239.7311401367188	52.13916015625001	-992.5588378906252	-234.5013427734376	48.2836380004883	-1031.457397460938	-258.9066162109376	43.75036621093751	-1081.377563476563	-285.2201232910157	701.0262451171876	-819.8188476562502	-236.7798461914063	653.7827148437501	-813.7849731445315	-204.3368225097657	659.6839599609376	-822.5170898437502	-252.5502624511719	570.5642700195314	-820.008239746094	-251.5748443603516	525.7460327148439	-825.0730590820315	-225.6409912109376	506.9932556152345	-935.4796142578127	-334.4741516113282	427.6911926269532	-859.757507324219	-436.8016357421876	465.7687988281251	-858.7535400390627	-421.7938537597657	421.5878906250001	-864.1058349609377	-451.2710266113282	392.6200256347657	-906.8447875976565	-605.0706176757814	400.5925903320314	-907.9576416015627	-565.0025634765626	385.8037414550782	-982.8201293945315	-628.9575805664064	452.1639709472657	-956.984558105469	-595.0343017578126	252.4235229492188	-988.8943481445315	-600.7082519531251	241.7234802246094	-943.950622558594	-639.0110473632814	260.4920654296876	-897.8406372070315	
1362	6.805	-190.8233947753907	1636.07861328125	-1022.7607421875	-318.1938781738282	1549.8642578125	-1123.07373046875	-309.1067810058594	1555.630737304688	-971.4093017578127	-356.9400634765626	1436.58349609375	-1045.399658203125	-392.5243225097657	1121.240478515625	-1040.793823242188	-225.6460876464844	1358.166625976563	-1044.683837890625	-294.0128784179688	1379.100952148438	-1219.525756835938	-269.7018432617188	1182.620239257813	-1283.987426757813	-231.2173614501954	1162.710693359375	-1260.105590820313	-256.0188293457032	1115.610595703125	-1292.714599609375	-258.2933044433594	1057.594360351563	-1296.610717773438	-286.5939636230469	1036.161254882813	-1221.620483398438	-82.44847869873048	887.9920043945315	-1245.017578125	-114.5906753540039	858.8555297851565	-1294.258544921875	-21.99261856079102	828.4489746093752	-1257.733276367188	-293.7581787109376	1368.909912109375	-876.1916503906252	-317.8662719726563	1173.561157226563	-798.6736450195315	-272.9252014160157	1153.331420898438	-800.1868286132815	-308.0038757324219	1104.078857421875	-792.258728027344	-289.9608154296876	1039.350952148438	-789.3651123046877	-294.6620483398438	1025.541259765625	-870.0715332031252	-123.3896408081055	857.5730590820315	-811.930603027344	-173.3336181640625	833.4799804687502	-773.9299926757815	-81.80532836914064	797.218444824219	-780.4807739257815	-246.8366394042969	926.5941162109377	-1134.44287109375	-240.9624938964844	937.149841308594	-918.599304199219	-402.0968017578126	1016.119995117188	-1027.109252929688	-413.4924621582032	987.046325683594	-1053.531127929688	-412.8105773925782	989.1860351562502	-996.6730957031252	-323.8494873046876	769.0021972656252	-1188.95166015625	-288.3365173339844	691.8889160156251	-1182.44287109375	-239.6601562500001	698.4669189453126	-1176.423217773438	-312.1398925781251	639.7222290039064	-1160.869262695313	-288.7895507812501	483.0197143554689	-1126.788696289063	-252.3399658203126	490.6170043945314	-1014.758544921875	-271.5863037109376	342.9621276855469	-1040.376586914063	-303.0754699707032	285.1754760742188	-1099.558349609375	-273.7921142578126	288.9960937500001	-1062.197387695313	-302.9782104492188	221.5980377197266	-1019.650024414063	-380.3293457031251	105.67626953125	-1057.294799804688	-352.5634460449219	122.2679214477539	-978.4295043945315	-441.1564941406251	97.26899719238284	-1007.765686035156	-239.716781616211	52.11680984497072	-992.612976074219	-234.4732818603516	48.138484954834	-1031.473266601563	-258.9199523925782	43.70846939086915	-1081.37841796875	-284.5827331542969	701.6880493164064	-819.6655273437502	-236.4316711425782	654.3370971679689	-813.917175292969	-203.8498840332032	660.2234497070314	-822.5481567382815	-251.9860992431641	571.0942993164064	-819.7436523437502	-251.0658874511719	526.3528442382814	-824.8935546875002	-225.9822540283204	507.768035888672	-935.4324340820315	-333.8656616210938	428.2321777343751	-859.461364746094	-436.1394042968751	466.1930236816407	-858.528747558594	-421.232635498047	421.9075927734376	-863.746032714844	-450.5830688476564	393.0227050781251	-906.5340576171877	-604.3990478515626	400.7969055175782	-907.6389770507815	-564.2525024414064	385.874969482422	-982.3743286132815	-628.2700195312501	452.3287963867189	-956.6925048828127	-594.1722412109376	252.5910797119141	-988.335144042969	-599.9459838867189	241.8099365234376	-943.5150146484377	-638.2904663085939	260.6786193847657	-897.3947753906252	
1363	6.81	-191.2419891357422	1636.492309570313	-1022.756103515625	-318.5722351074219	1550.234375	-1123.112182617188	-309.5025634765626	1556.060791015625	-971.550720214844	-357.2774963378907	1436.936279296875	-1045.407592773438	-392.4138793945314	1121.582275390625	-1040.886962890625	-225.8579559326172	1358.643188476563	-1044.78466796875	-294.3014831542969	1379.468994140625	-1219.610229492188	-269.5036926269532	1183.029907226563	-1284.02587890625	-230.9694061279297	1163.388793945313	-1260.065795898438	-255.6869354248047	1116.245239257813	-1292.657470703125	-257.6078186035157	1058.083740234375	-1296.561157226563	-285.9341125488282	1036.567993164063	-1221.501098632813	-81.00673675537111	889.3848876953127	-1244.319458007813	-112.8351211547852	860.1412353515627	-1293.8408203125	-20.11622047424317	830.269226074219	-1256.787475585938	-294.0354614257813	1369.2431640625	-876.2882080078127	-317.7972412109376	1173.878540039063	-798.7805175781252	-272.7844848632813	1153.80224609375	-800.2498779296877	-307.7694702148438	1104.469116210938	-792.386657714844	-289.5965576171876	1039.731201171875	-789.506530761719	-294.3731689453126	1025.56103515625	-870.328063964844	-122.271484375	858.7344970703127	-812.435974121094	-171.9089508056641	834.4914550781252	-774.213562011719	-80.16017150878908	798.8015136718752	-781.0870361328127	-246.4527130126954	927.031921386719	-1134.516479492188	-240.5774230957032	937.6138916015627	-918.730651855469	-402.1432495117189	1016.750427246094	-1027.070068359375	-413.3190917968751	987.2962646484377	-1053.440307617188	-411.992645263672	989.2824707031252	-996.8033447265627	-324.0849304199219	769.3413696289065	-1188.252319335938	-288.6298828125001	692.1815185546876	-1182.324462890625	-239.7415466308594	698.5891723632814	-1176.455322265625	-312.5417480468751	640.0993652343751	-1160.782470703125	-289.4172668457032	483.2594299316407	-1126.782592773438	-252.7148132324219	490.662811279297	-1014.816528320313	-271.8661193847657	343.1981506347657	-1040.541259765625	-303.4792785644532	285.3699340820313	-1099.6806640625	-274.1730041503907	289.2956848144532	-1062.43798828125	-302.8112182617188	222.1504516601563	-1019.816162109375	-380.2793579101563	105.6320953369141	-1057.338623046875	-352.4900817871094	122.3121414184571	-978.5280761718752	-441.1270141601564	97.29899597167972	-1007.805419921875	-240.1651153564454	51.51253509521486	-992.7141113281252	-234.4831542968751	48.12375640869142	-1031.484008789063	-258.9042358398438	43.70382308959962	-1081.372314453125	-284.0819396972657	702.2143554687501	-819.551208496094	-235.9357604980469	654.7366943359376	-813.8967895507815	-203.2891082763672	660.6806640625001	-822.3666992187502	-251.391586303711	571.6466674804689	-819.546325683594	-250.5970153808594	526.8157348632814	-824.7456054687502	-225.555404663086	508.2208251953126	-935.2173461914065	-333.4021911621094	428.6274414062501	-859.3225708007815	-435.5491943359376	466.5659790039064	-858.289733886719	-420.2101440429689	422.2959594726564	-863.769470214844	-449.9403076171876	393.4077148437501	-906.2393188476565	-603.7720336914064	401.0000000000001	-907.3980712890627	-563.1616210937501	385.8480529785157	-981.613952636719	-627.6618041992189	452.4776611328126	-956.5177001953127	-593.3537597656251	252.6968688964844	-987.9327392578127	-599.0080566406251	241.9858398437501	-942.7564086914065	-637.5554199218751	260.9431457519532	-896.7249755859377	
1364	6.815	-191.6922912597657	1636.987915039063	-1022.798034667969	-319.2069702148438	1550.688232421875	-1123.030395507813	-309.9346618652344	1556.456298828125	-971.5244140625002	-357.5911560058594	1437.248657226563	-1045.466918945313	-392.3888549804689	1121.89892578125	-1040.999755859375	-226.1595764160157	1359.12646484375	-1044.853271484375	-294.7353210449219	1379.869140625	-1219.682250976563	-270.6132202148438	1183.783081054688	-1284.340942382813	-230.7649230957032	1163.987182617188	-1259.991943359375	-255.2592315673829	1116.800170898438	-1292.580444335938	-256.9773559570313	1058.555541992188	-1296.532836914063	-285.5133666992188	1036.975952148438	-1221.453735351563	-79.96202850341798	890.7180175781252	-1243.840576171875	-111.3083572387696	861.2956542968752	-1293.22412109375	-18.69419288635254	831.9033813476565	-1256.284790039063	-294.3784179687501	1369.560546875	-876.3586425781252	-317.7726745605469	1174.197875976563	-798.9432373046877	-272.6390991210938	1154.255249023438	-800.377868652344	-307.6544799804688	1104.772216796875	-792.5153808593752	-289.3186340332032	1040.0830078125	-789.657897949219	-294.0273437500001	1026.040649414063	-870.2800292968752	-121.1406021118164	859.8257446289065	-812.6919555664065	-170.4220733642578	835.417907714844	-774.5434570312502	-78.65549468994142	800.0874633789065	-781.5301513671877	-246.2323913574219	927.395690917969	-1134.686401367188	-240.1407775878907	938.127624511719	-918.7929687500002	-401.9664306640626	1017.012573242188	-1027.100219726563	-413.0899658203126	987.5005493164065	-1053.452514648438	-411.6872863769532	989.637634277344	-996.8381347656252	-325.2866821289063	770.045593261719	-1188.276123046875	-289.4629516601563	692.5936279296876	-1182.410766601563	-240.2212066650391	698.8398437500001	-1176.701293945313	-312.8059082031251	640.3903198242189	-1160.71630859375	-290.2163696289063	483.4837951660157	-1126.759887695313	-252.9954681396485	490.7135620117189	-1014.841430664063	-272.1065063476563	343.3213806152344	-1040.6748046875	-303.3095397949219	285.4407653808594	-1099.500366210938	-274.5027465820313	289.6130676269532	-1062.691162109375	-303.2173156738282	221.7803344726563	-1019.958679199219	-380.3713989257813	105.6785964965821	-1057.36083984375	-352.4775085449219	122.3693466186524	-978.5915527343752	-441.1369018554689	97.31253051757815	-1007.793701171875	-240.1814422607422	51.52565002441408	-992.751647949219	-234.4940795898438	48.06807708740236	-1031.538452148438	-258.9131774902344	43.68558883666993	-1081.468017578125	-283.5921630859376	702.7402954101564	-819.4299926757815	-235.261459350586	655.4049682617189	-813.6887817382815	-202.7959747314454	661.2076416015626	-822.3504638671877	-250.7717285156251	572.2230834960939	-819.3924560546877	-249.9994812011719	527.2990722656251	-824.573181152344	-224.2643127441407	508.3507690429689	-934.7744750976565	-332.8159179687501	429.0267639160157	-858.994323730469	-434.9081420898439	466.9569091796876	-857.9738769531252	-419.8931884765626	422.5559692382814	-863.0505371093752	-449.2934570312501	393.7004394531251	-905.784118652344	-603.2012329101564	401.1371154785157	-907.1494140625002	-563.5076293945314	386.4891662597657	-981.8719482421877	-627.0810546875001	452.4586486816407	-956.3574829101565	-592.6091308593751	252.7389068603516	-987.4787597656252	-598.3342895507814	242.1091613769532	-942.329284667969	-636.8248291015626	261.0849304199219	-896.1885986328127	
